<svg xmlns="http://www.w3.org/2000/svg" style="display: none">
    <svg xmlns="http://www.w3.org/2000/svg" id="check" viewBox="0 0 16 16"><path fill-rule="evenodd" d="M13.78 4.22a.75.75 0 010 1.06l-7.25 7.25a.75.75 0 01-1.06 0L2.22 9.28a.75.75 0 011.06-1.06L6 10.94l6.72-6.72a.75.75 0 011.06 0z"></path></svg>
    <svg xmlns="http://www.w3.org/2000/svg" id="alert" viewBox="0 0 16 16"><path fill-rule="evenodd" d="M8.22 1.754a.25.25 0 00-.44 0L1.698 13.132a.25.25 0 00.22.368h12.164a.25.25 0 00.22-.368L8.22 1.754zm-1.763-.707c.659-1.234 2.427-1.234 3.086 0l6.082 11.378A1.75 1.75 0 0114.082 15H1.918a1.75 1.75 0 01-1.543-2.575L6.457 1.047zM9 11a1 1 0 11-2 0 1 1 0 012 0zm-.25-5.25a.75.75 0 00-1.5 0v2.5a.75.75 0 001.5 0v-2.5z"></path></svg>
    <svg xmlns="http://www.w3.org/2000/svg" id="clipboard" viewBox="0 0 16 16"><path fill-rule="evenodd" d="M5.75 1a.75.75 0 00-.75.75v3c0 .414.336.75.75.75h4.5a.75.75 0 00.75-.75v-3a.75.75 0 00-.75-.75h-4.5zm.75 3V2.5h3V4h-3zm-2.874-.467a.75.75 0 00-.752-1.298A1.75 1.75 0 002 3.75v9.5c0 .966.784 1.75 1.75 1.75h8.5A1.75 1.75 0 0014 13.25v-9.5a1.75 1.75 0 00-.874-1.515.75.75 0 10-.752 1.298.25.25 0 01.126.217v9.5a.25.25 0 01-.25.25h-8.5a.25.25 0 01-.25-.25v-9.5a.25.25 0 01.126-.217z"></path></svg>
    <svg xmlns="http://www.w3.org/2000/svg" id="fork" viewBox="0 0 16 16"><path fill-rule="evenodd" d="M5 3.25a.75.75 0 11-1.5 0 .75.75 0 011.5 0zm0 2.122a2.25 2.25 0 10-1.5 0v.878A2.25 2.25 0 005.75 8.5h1.5v2.128a2.251 2.251 0 101.5 0V8.5h1.5a2.25 2.25 0 002.25-2.25v-.878a2.25 2.25 0 10-1.5 0v.878a.75.75 0 01-.75.75h-4.5A.75.75 0 015 6.25v-.878zm3.75 7.378a.75.75 0 11-1.5 0 .75.75 0 011.5 0zm3-8.75a.75.75 0 100-1.5.75.75 0 000 1.5z"></path></svg>
    <svg xmlns="http://www.w3.org/2000/svg" id="repo" viewBox="0 0 16 16"><path fill-rule="evenodd" d="M2 2.5A2.5 2.5 0 014.5 0h8.75a.75.75 0 01.75.75v12.5a.75.75 0 01-.75.75h-2.5a.75.75 0 110-1.5h1.75v-2h-8a1 1 0 00-.714 1.7.75.75 0 01-1.072 1.05A2.495 2.495 0 012 11.5v-9zm10.5-1V9h-8c-.356 0-.694.074-1 .208V2.5a1 1 0 011-1h8zM5 12.25v3.25a.25.25 0 00.4.2l1.45-1.087a.25.25 0 01.3 0L8.6 15.7a.25.25 0 00.4-.2v-3.25a.25.25 0 00-.25-.25h-3.5a.25.25 0 00-.25.25z"></path></svg>
    <svg xmlns="http://www.w3.org/2000/svg" id="chevron-right" viewBox="0 0 16 16"><path fill-rule="evenodd" d="M6.22 3.22a.75.75 0 011.06 0l4.25 4.25a.75.75 0 010 1.06l-4.25 4.25a.75.75 0 01-1.06-1.06L9.94 8 6.22 4.28a.75.75 0 010-1.06z"></path></svg>
    <svg xmlns="http://www.w3.org/2000/svg" id="chevron-left" viewBox="0 0 16 16"><path fill-rule="evenodd" d="M9.78 12.78a.75.75 0 01-1.06 0L4.47 8.53a.75.75 0 010-1.06l4.25-4.25a.75.75 0 011.06 1.06L6.06 8l3.72 3.72a.75.75 0 010 1.06z"></path></svg>
    <svg xmlns="http://www.w3.org/2000/svg" id="github" viewBox="0 0 16 16"><path fill-rule="evenodd" d="M8 0C3.58 0 0 3.58 0 8c0 3.54 2.29 6.53 5.47 7.59.4.07.55-.17.55-.38 0-.19-.01-.82-.01-1.49-2.01.37-2.53-.49-2.69-.94-.09-.23-.48-.94-.82-1.13-.28-.15-.68-.52-.01-.53.63-.01 1.08.58 1.23.82.72 1.21 1.87.87 2.33.66.07-.52.28-.87.51-1.07-1.78-.2-3.64-.89-3.64-3.95 0-.87.31-1.59.82-2.15-.08-.2-.36-1.02.08-2.12 0 0 .67-.21 2.2.82.64-.18 1.32-.27 2-.27.68 0 1.36.09 2 .27 1.53-1.04 2.2-.82 2.2-.82.44 1.1.16 1.92.08 2.12.51.56.82 1.27.82 2.15 0 3.07-1.87 3.75-3.65 3.95.29.25.54.73.54 1.48 0 1.07-.01 1.93-.01 2.2 0 .21.15.46.55.38A8.013 8.013 0 0016 8c0-4.42-3.58-8-8-8z"></path></svg>
    <svg xmlns="http://www.w3.org/2000/svg" id="heart" viewBox="0 0 16 16"><path fill-rule="evenodd" d="M7.655 14.916L8 14.25l.345.666a.752.752 0 01-.69 0zm0 0L8 14.25l.345.666.002-.001.006-.003.018-.01a7.643 7.643 0 00.31-.17 22.08 22.08 0 003.433-2.414C13.956 10.731 16 8.35 16 5.5 16 2.836 13.914 1 11.75 1 10.203 1 8.847 1.802 8 3.02 7.153 1.802 5.797 1 4.25 1 2.086 1 0 2.836 0 5.5c0 2.85 2.045 5.231 3.885 6.818a22.075 22.075 0 003.744 2.584l.018.01.006.003h.002z"></path></svg>
    <svg xmlns="http://www.w3.org/2000/svg" id="external-link" viewBox="0 0 16 16"><path fill-rule="evenodd" d="M10.604 1h4.146a.25.25 0 01.25.25v4.146a.25.25 0 01-.427.177L13.03 4.03 9.28 7.78a.75.75 0 01-1.06-1.06l3.75-3.75-1.543-1.543A.25.25 0 0110.604 1zM3.75 2A1.75 1.75 0 002 3.75v8.5c0 .966.784 1.75 1.75 1.75h8.5A1.75 1.75 0 0014 12.25v-3.5a.75.75 0 00-1.5 0v3.5a.25.25 0 01-.25.25h-8.5a.25.25 0 01-.25-.25v-8.5a.25.25 0 01.25-.25h3.5a.75.75 0 000-1.5h-3.5z"></path></svg>
    <svg xmlns="http://www.w3.org/2000/svg" id="star" viewBox="0 0 16 16"><path fill-rule="evenodd" d="M8 .25a.75.75 0 01.673.418l1.882 3.815 4.21.612a.75.75 0 01.416 1.279l-3.046 2.97.719 4.192a.75.75 0 01-1.088.791L8 12.347l-3.766 1.98a.75.75 0 01-1.088-.79l.72-4.194L.818 6.374a.75.75 0 01.416-1.28l4.21-.611L7.327.668A.75.75 0 018 .25z"></path></svg>
    <svg xmlns="http://www.w3.org/2000/svg" id="notification" viewBox="0 0 16 16"><path d="M8 16a2 2 0 001.985-1.75c.017-.137-.097-.25-.235-.25h-3.5c-.138 0-.252.113-.235.25A2 2 0 008 16z"></path><path fill-rule="evenodd" d="M8 1.5A3.5 3.5 0 004.5 5v2.947c0 .346-.102.683-.294.97l-1.703 2.556a.018.018 0 00-.003.01l.001.006c0 .002.002.004.004.006a.017.017 0 00.006.004l.007.001h10.964l.007-.001a.016.016 0 00.006-.004.016.016 0 00.004-.006l.001-.007a.017.017 0 00-.003-.01l-1.703-2.554a1.75 1.75 0 01-.294-.97V5A3.5 3.5 0 008 1.5zM3 5a5 5 0 0110 0v2.947c0 .05.015.098.042.139l1.703 2.555A1.518 1.518 0 0113.482 13H2.518a1.518 1.518 0 01-1.263-2.36l1.703-2.554A.25.25 0 003 7.947V5z"></path></svg>
    <svg xmlns="http://www.w3.org/2000/svg" id="sync" viewBox="0 0 16 16"><path fill-rule="evenodd" d="M8 2.5a5.487 5.487 0 00-4.131 1.869l1.204 1.204A.25.25 0 014.896 6H1.25A.25.25 0 011 5.75V2.104a.25.25 0 01.427-.177l1.38 1.38A7.001 7.001 0 0114.95 7.16a.75.75 0 11-1.49.178A5.501 5.501 0 008 2.5zM1.705 8.005a.75.75 0 01.834.656 5.501 5.501 0 009.592 2.97l-1.204-1.204a.25.25 0 01.177-.427h3.646a.25.25 0 01.25.25v3.646a.25.25 0 01-.427.177l-1.38-1.38A7.001 7.001 0 011.05 8.84a.75.75 0 01.656-.834z"></path></svg>
</svg>